<?xml version="1.0" encoding="iso-8859-1"?>
<!-- Uploaded to: SVG Repo, www.svgrepo.com, Generator: SVG Repo Mixer Tools -->
<svg height="800px" width="800px" version="1.1" id="Layer_1" xmlns="http://www.w3.org/2000/svg" xmlns:xlink="http://www.w3.org/1999/xlink" 
	 viewBox="0 0 511.986 511.986" xml:space="preserve">
<path style="fill:#FCD577;" d="M422.008,226.784c0.875-5.991,1.318-12.113,1.318-18.343c0-70.139-56.863-127.002-127.002-127.002
	c-44.595,0-83.822,22.98-106.466,57.75"/>
<path style="fill:#EAC36E;" d="M213.652,208.44c0-62.58,45.263-114.585,104.837-125.071c-7.198-1.266-14.604-1.931-22.165-1.931
	c-70.141,0-127.002,56.861-127.002,127.002s56.861,127.002,127.002,127.002c7.561,0,14.967-0.664,22.165-1.931
	C258.915,323.025,213.652,271.02,213.652,208.44z"/>
<polyline style="fill:#FF6F52;" points="144.843,286.211 265.533,331.747 324.463,353.982 460.663,241.366 158.367,127.309 "/>
<circle style="fill:#415E72;" cx="409.883" cy="438.852" r="73.134"/>
<circle style="fill:#FF6F52;" cx="409.883" cy="438.852" r="39.778"/>
<path style="fill:#344F5E;" d="M409.827,487.612c-5.71,0-11.509-1.01-17.16-3.142c-25.156-9.492-37.899-37.68-28.408-62.835l0,0
	c9.492-25.155,37.681-37.898,62.835-28.408c25.156,9.492,37.899,37.68,28.408,62.835
	C448.141,475.567,429.539,487.612,409.827,487.612z M381.073,427.979c-5.993,15.884,2.054,33.682,17.938,39.676
	c7.693,2.903,16.057,2.636,23.552-0.751c7.493-3.388,13.22-9.492,16.123-17.186c5.993-15.884-2.054-33.682-17.937-39.676
	C404.866,404.05,387.066,412.097,381.073,427.979L381.073,427.979z"/>
<path style="fill:#CFDCE5;" d="M409.889,447.836c-3.167,0-6.236-1.676-7.874-4.643l-71.259-129.034
	c-2.663-4.813-6.966-8.536-12.112-10.478c-4.668-1.76-9.868-1.964-14.646-0.569c-4.87,1.423-9.035,4.31-12.038,8.345
	l-86.081,115.007c-11.718,15.66-32.689,21.774-50.996,14.865c-8.927-3.369-16.652-9.668-21.75-17.737
	c-5.175-8.163-7.491-17.59-6.692-27.253l26.472-310.933c0.875-10.284-5.257-20.011-14.914-23.655L110.243,51.28
	c-4.643-1.752-6.988-6.936-5.236-11.58s6.937-6.989,11.58-5.236l27.755,10.472c17.144,6.469,28.032,23.737,26.478,41.995
	l-26.47,310.911c-0.472,5.709,0.9,11.297,3.969,16.139c3.076,4.868,7.537,8.507,12.907,10.534
	c10.865,4.101,23.311,0.473,30.262-8.818l86.067-114.987c5.341-7.176,12.747-12.317,21.403-14.847
	c8.497-2.479,17.74-2.122,26.027,1.005c9.132,3.445,16.766,10.05,21.496,18.596l71.264,129.042c2.399,4.343,0.822,9.81-3.523,12.21
	C412.848,447.475,411.357,447.836,409.889,447.836z"/>
<g>
	<path style="fill:#415E72;" d="M40.411,34.22l66.765,25.191l12.48-33.077L52.891,1.143c-9.133-3.446-19.332,1.165-22.779,10.298
		l0,0C26.666,20.575,31.278,30.774,40.411,34.22z"/>
	<path style="fill:#415E72;" d="M104.546,75.361c-1.053,0-2.125-0.187-3.17-0.581c-4.643-1.752-6.988-6.936-5.236-11.58
		l17.735-47.003c1.752-4.643,6.935-6.99,11.58-5.236c4.643,1.752,6.988,6.936,5.236,11.58l-17.735,47.003
		C111.597,73.145,108.178,75.361,104.546,75.361z"/>
</g>
<g>
	<circle style="fill:#EAC36E;" cx="377.797" cy="162.119" r="8.986"/>
	<circle style="fill:#EAC36E;" cx="345.447" cy="166.912" r="8.986"/>
	<circle style="fill:#EAC36E;" cx="348.239" cy="136.551" r="8.986"/>
</g>
</svg>