<?xml version="1.0" encoding="iso-8859-1"?>
<!-- Uploaded to: SVG Repo, www.svgrepo.com, Generator: SVG Repo Mixer Tools -->
<svg height="800px" width="800px" version="1.1" id="Layer_1" xmlns="http://www.w3.org/2000/svg" xmlns:xlink="http://www.w3.org/1999/xlink" 
	 viewBox="0 0 511.999 511.999" xml:space="preserve">
<path style="fill:#43D177;" d="M500.731,344.072c0,11.686-1.104,23.124-3.167,34.223h-48.591
	c2.795-10.953,4.293-22.414,4.293-34.223c0-17.264-3.167-33.773-8.959-48.997c-5.432-14.357-13.196-27.552-22.831-39.148h-33.175
	H288.189c-32.826,0-59.443-26.617-59.443-59.443v-62.779h70.171c0,33.232,26.933,60.164,60.164,60.164h65.1
	C470.576,227.609,500.731,282.319,500.731,344.072z"/>
<g>
	<path style="fill:#E1EAF6;" d="M424.182,162.193v31.677h-65.1c-33.232,0-60.164-26.933-60.164-60.164h96.777
		C411.426,133.705,424.182,146.462,424.182,162.193z"/>
	<path style="fill:#E1EAF6;" d="M228.746,196.484v10.131c0,13.387-10.852,24.228-24.228,24.228h-37.086
		c-13.376,0-24.228-10.841-24.228-24.228v-1.431v-45.819v-1.431c0-13.376,10.852-24.228,24.228-24.228h61.314V196.484z"/>
</g>
<g>
	<path style="fill:#9DA6BA;" d="M204.924,230.843v127.676c0,10.919-8.846,19.777-19.766,19.777s-19.777-8.857-19.777-19.777v-15.427
		v-31.463v-31.463v-49.324h2.051h37.086H204.924z"/>
	<path style="fill:#9DA6BA;" d="M143.204,159.365v45.819H94.974c-10.998,0-19.912-8.914-19.912-19.912v-2.998v-2.998
		c0-10.998,8.914-19.912,19.912-19.912H143.204z"/>
</g>
<path d="M11.269,171.005C5.045,171.005,0,176.05,0,182.274c0,6.224,5.045,11.269,11.269,11.269h53.646
	c3.634,13.19,15.729,22.91,30.059,22.91h38.359c3.03,10.487,10.773,18.989,20.78,23.056v29.389h-9.105
	c-6.224,0-11.269,5.045-11.269,11.269c0,6.224,5.045,11.269,11.269,11.269h9.105v8.925h-9.105c-6.224,0-11.269,5.045-11.269,11.269
	c0,6.224,5.045,11.269,11.269,11.269h9.105v8.925h-9.105c-6.224,0-11.269,5.045-11.269,11.269s5.045,11.269,11.269,11.269h9.105
	v4.158c0,17.118,13.927,31.046,31.046,31.046c17.113,0,31.034-13.927,31.034-31.046V240.13c4.332-1.513,8.28-3.843,11.666-6.805
	c12.441,20.299,34.829,33.871,60.331,33.871h93.205l16.801,32.992c1.924,3.777,5.803,6.155,10.042,6.155h28.044
	c3.792,12.155,5.718,24.809,5.718,37.728c0,10.604-1.326,21.181-3.944,31.438c-0.861,3.372-0.115,6.952,2.019,9.699
	c2.134,2.747,5.419,4.355,8.899,4.355h48.591c5.429,0,10.088-3.873,11.08-9.211c2.227-11.988,3.356-24.194,3.356-36.281
	c0-31.581-7.659-62.983-22.151-90.811c-9.207-17.68-21.181-33.956-35.278-48.122h9.188c6.224,0,11.269-5.045,11.269-11.269
	c0-6.224-5.045-11.269-11.269-11.269H435.45v-20.408c0-21.921-17.835-39.756-39.756-39.756H228.746h-61.314
	c-16.16,0-29.822,10.859-34.1,25.659H94.974c-14.329,0-26.424,9.719-30.059,22.91H11.269V171.005z M185.158,367.027
	c-4.691,0-8.508-3.817-8.508-8.508V242.112h17.005v116.407C193.655,363.21,189.843,367.027,185.158,367.027z M406.686,267.196h9.367
	c4.023,5.264,7.594,10.817,10.725,16.61h-11.633L406.686,267.196z M412.913,162.193v31.677c0,0.428,0.029,0.849,0.076,1.264
	c0.012,0.112,0.035,0.222,0.051,0.332c0.044,0.309,0.096,0.613,0.165,0.914c0.027,0.121,0.061,0.238,0.092,0.357
	c0.077,0.291,0.162,0.577,0.261,0.858c0.039,0.114,0.081,0.228,0.124,0.34c0.112,0.288,0.237,0.57,0.371,0.846
	c0.046,0.096,0.089,0.193,0.139,0.287c0.174,0.331,0.361,0.654,0.565,0.966c0.02,0.032,0.038,0.065,0.059,0.097
	c0.229,0.341,0.477,0.667,0.74,0.98c0.071,0.085,0.15,0.163,0.223,0.247c0.198,0.223,0.402,0.439,0.619,0.646
	c0.101,0.097,0.206,0.19,0.312,0.284c0.213,0.189,0.434,0.371,0.661,0.544c0.064,0.048,0.121,0.105,0.185,0.152
	c45.027,32.745,71.908,85.488,71.908,141.088c0,7.631-0.508,15.319-1.516,22.955h-25.18c1.175-7.586,1.769-15.265,1.769-22.955
	c0-18.261-3.262-36.094-9.688-52.985c-0.037-0.098-0.08-0.193-0.116-0.29c-0.021-0.053-0.042-0.106-0.064-0.159
	c-5.812-15.215-14.056-29.317-24.522-41.913c-2.141-2.577-5.318-4.067-8.667-4.067H288.189c-26.563,0-48.174-21.611-48.174-48.174
	v-51.51h48.548c5.163,32.107,31.973,57.552,65.271,59.974c0.001,0,0.003,0,0.004,0c1.738,0.126,3.501,0.19,5.242,0.19
	c6.224,0,11.269-5.045,11.269-11.269c0-6.224-5.045-11.269-11.269-11.269c-1.199,0-2.414-0.044-3.611-0.131h-0.001
	c-21.539-1.566-39.114-17.22-43.954-37.496h84.177C405.188,144.974,412.913,152.698,412.913,162.193z M154.473,157.933
	c0-7.146,5.814-12.959,12.959-12.959h50.045v61.641c0,7.146-5.814,12.959-12.959,12.959h-37.086
	c-7.146,0-12.959-5.814-12.959-12.959V157.933z M86.331,179.277c0-4.766,3.878-8.643,8.643-8.643h36.962v23.281H94.974
	c-4.766,0-8.643-3.878-8.643-8.643V179.277z"/>
<path d="M392.071,205.139h1.784c6.224,0,11.269-5.045,11.269-11.269c0-6.224-5.045-11.269-11.269-11.269h-1.784
	c-6.224,0-11.269,5.045-11.269,11.269C380.802,200.094,385.848,205.139,392.071,205.139z"/>
</svg>