<?xml version="1.0" ?>
<!DOCTYPE svg  PUBLIC '-//W3C//DTD SVG 1.1//EN'  'http://www.w3.org/Graphics/SVG/1.1/DTD/svg11.dtd'>
<!-- Uploaded to: SVG Repo, www.svgrepo.com, Generator: SVG Repo Mixer Tools -->
<svg width="800px" height="800px" viewBox="0 0 67733.32 67733.32" style="shape-rendering:geometricPrecision; text-rendering:geometricPrecision; image-rendering:optimizeQuality; fill-rule:evenodd; clip-rule:evenodd" version="1.1" xml:space="preserve" xmlns="http://www.w3.org/2000/svg" xmlns:xlink="http://www.w3.org/1999/xlink" xmlns:xodm="http://www.corel.com/coreldraw/odm/2003">
<defs>
<style type="text/css">
   <![CDATA[
    .fil0 {fill:none}
    .fil4 {fill:#262A38;fill-rule:nonzero}
    .fil5 {fill:#484B60;fill-rule:nonzero}
    .fil7 {fill:#80B6C6;fill-rule:nonzero}
    .fil6 {fill:#AAD1DF;fill-rule:nonzero}
    .fil1 {fill:#DDCAC6;fill-rule:nonzero}
    .fil3 {fill:#FFC15B;fill-rule:nonzero}
    .fil2 {fill:white;fill-rule:nonzero}
   ]]>
  </style>
</defs>
<g id="Layer_x0020_1">
<rect class="fil0" height="67733.32" width="67733.32" x="-0" y="-0"/>
<g id="_2731011244192">
<path class="fil1" d="M59511.63 54075.39c-618.8,-1807.97 -2034.17,-2869.07 -3458.31,-3509.08 104.59,-180.5 208,-363.16 309.77,-547.66 1196.12,-2167.24 1913.33,-4092.04 2192.58,-5884.54 631.02,-4049.38 -1207.06,-6402.3 -2358.99,-7444.45 -72.44,-65.51 -147.15,-128.53 -224.03,-188.94 -612.4,-480.74 -1276.88,-863.93 -1978.62,-1144.04 1813.83,-2322.5 3224.87,-5293.68 2647.66,-8605.05 -16.03,-91.71 -34.98,-182.77 -57.06,-273.18 -660.05,-2708.83 -2831.07,-5529.29 -5966.61,-7839.88 -366.08,-2948.01 -2302.69,-5416.35 -4943.52,-6538.52 -512.68,-791.06 -1289.12,-1407.03 -2230.68,-1712.26l-8553.52 -2772.49c-421.08,-136.32 -858.3,-204.64 -1295.51,-204.64 -437.33,0 -874.54,68.32 -1295.62,204.64l-2722.37 882.55c-76.11,-4.23 -152.34,-6.28 -228.56,-6.28 -276.32,0 -552.32,27.28 -824.19,81.2 -200.21,37.9 -393.48,89.01 -585.88,154.73 -14.08,4.76 -28.26,9.74 -42.34,14.62 -277.61,98.09 -537.91,221.31 -794.2,375.93 -173.56,103.94 -335.11,216.44 -489.62,340.74l-2866.25 929c-941.56,305.12 -1718.01,921.2 -2230.8,1712.26 -2629.67,1117.08 -4560.44,3568.53 -4938.53,6499.76 -3132.19,2309.18 -5305.16,5143.39 -5971.59,7878.53 -22.09,90.52 -41.15,181.58 -57.06,273.29 -579.28,3323.18 827.33,6292.95 2636.6,8609.38 -697.72,279.79 -1358.42,661.35 -1967.57,1139.71 -76.88,60.41 -151.7,123.43 -224.13,188.94 -1151.83,1042.15 -2989.91,3395.07 -2358.88,7444.45 279.24,1792.5 996.45,3717.3 2192.57,5884.54 101.78,184.5 205.18,367.16 309.77,547.66 -1424.14,640.01 -2839.62,1701.11 -3458.3,3509.08 -439.28,1283.5 -231.82,2700.06 556.86,3803.71 788.89,1103.54 2061.88,1758.49 3418.46,1758.49l10706.78 0c847.26,828.74 1998.65,1307.64 3199.42,1307.64 325.7,0 647.49,-30.64 961.6,-90.19 304.03,59.44 616.08,90.19 932.14,90.19 359.36,0 712.77,-39.84 1055.14,-116.5 355.79,76.98 720.89,116.5 1088.7,116.5 1213.98,0 2361.48,-485.94 3206.03,-1307.64l242.86 0 548.85 0 549.17 0 242.64 0c844.66,821.7 1992.05,1307.64 3206.03,1307.64 367.81,0 732.7,-39.52 1088.6,-116.5 342.36,76.66 695.77,116.5 1055.14,116.5 316.16,0 628.1,-30.75 932.14,-90.19 314.21,59.55 635.9,90.19 961.59,90.19 1200.88,0 2352.28,-478.9 3199.53,-1307.64l10706.79 0c1356.57,0 2629.57,-654.95 3418.46,-1758.49 788.67,-1103.65 996.13,-2520.21 556.86,-3803.71z"/>
<g>
<path class="fil2" d="M43964.08 54915.07l55.43 -101.78 12060.66 0c-604.39,-1766.08 -6604.78,-2032.43 -6604.78,-2032.43 0,0 8525.8,-9907.07 4446.21,-13597.95 -2275.19,-1786.54 -4999.28,-164.36 -6084.2,632.33 -319.3,-1681.52 -753.59,-2962.85 -928.67,-3443.91 25.01,-14.73 43.2,-25.55 47.42,-28.04l-114.12 -190.03c253.15,-167.5 7009.08,-4685.39 6204.16,-9302.78 -456.16,-1872.4 -2599.36,-4550.48 -6198.64,-6645.93 113.37,-370.73 175.3,-764.09 175.3,-1171.97 0,-2210.43 -1792.06,-4002.39 -4002.39,-4002.39 -1650,0 -3066.03,998.95 -3678.32,2424.72 -502.51,-95.5 -1017.79,-177.57 -1545.09,-246l0 -1421.98 4895.01 -1586.56 0 -438.08 -8553.52 -2772.49 -3879.49 1257.51 -291.16 -157.54c-2.49,-1.3 -5.19,-1.09 -7.68,-2.28 -9.1,-4.44 -19.06,-6.17 -29.02,-8.88 -10.5,-2.7 -20.68,-5.84 -31.4,-6.38 -2.71,-0.11 -4.98,-1.52 -7.8,-1.52 -7.79,0 -14.61,3.46 -22.3,4.55 -10.29,1.51 -20.25,2.6 -30.1,6.06 -10.61,3.68 -19.6,9.31 -28.91,15.05 -8.12,4.77 -16.13,9.42 -23.39,15.7 -8.34,7.47 -14.62,16.24 -21.22,25.12 -4.44,6.06 -10.5,10.18 -14.19,16.89 -1.29,2.49 -1.08,5.2 -2.27,7.58 -4.33,9.1 -6.17,18.84 -8.77,28.59 -2.81,11.04 -6.17,21.65 -6.6,32.59 0,2.49 -1.41,4.54 -1.41,7.03l0 188.08 -4147.8 1344.34 0 438.08 4147.8 1344.35 0 1764.56c-270.8,42.01 -538.78,86.94 -802.43,136.21 -614.57,-1420.57 -2027.34,-2415.3 -3673.77,-2415.3 -2210.44,0 -4002.28,1791.96 -4002.28,4002.39 0,397.27 59.87,780.13 167.61,1142.31 -3613.47,2099.78 -5732.63,4793.99 -6191.18,6675.59 -820.07,4704.88 6214.89,9309.82 6216.19,9310.58l-122.25 173.56c4.01,2.71 19.49,13.75 45.48,31.29 -173.67,476.96 -610.02,1761.53 -930.52,3449.33 -1084.91,-796.69 -3809.01,-2418.87 -6084.3,-632.33 -4079.37,3690.88 4446.43,13597.95 4446.43,13597.95 0,0 -6000.4,266.35 -6604.79,2032.43l12060.55 0 55.55 101.78 186.45 -101.78 1513.58 0 -261.16 828.74c-74.71,237.34 102.42,479.01 351.24,479.01 276.97,0 539.86,-122.14 718.73,-333.71l354.82 -420 232.25 410.8c119.86,211.89 344.53,342.91 587.82,342.91 229.76,0 441.01,-125.17 551.45,-326.45l264.51 -482.59 713.43 588.26c173.02,142.82 390.22,220.78 614.46,220.78 331.21,0 511.93,-386.66 299.49,-640.78l-557.29 -666.75 0.21 -0.22 3706.37 0 549.06 0 549.17 0 3706.37 0 0 0.11 -557.29 666.86c-212.33,254.12 -31.51,640.78 299.6,640.78 224.23,0 441.54,-77.96 614.57,-220.78l713.31 -588.26 264.52 482.59c110.33,201.28 321.79,326.45 551.33,326.45 243.41,0 468.08,-131.02 587.83,-342.91l232.36 -410.8 354.82 420c178.76,211.57 441.76,333.71 718.73,333.71 248.81,0 425.95,-241.67 351.24,-479.01l-261.16 -828.74 1513.69 0 186.45 101.78zm-13912.92 -39267.05l0 0 428.88 138.92 0 1417c-142.93,18.19 -287.8,34.21 -428.88,54.46l0 -1610.38z"/>
<path class="fil2" d="M34138.54 10989.81l8553.52 2772.49 0 438.19 -4895.01 1586.56 0 1421.87c527.3,68.43 1042.58,150.5 1545.09,246 612.29,-1425.77 2028.21,-2424.72 3678.32,-2424.72 2210.33,0 4002.39,1792.07 4002.39,4002.39 0,407.88 -61.93,801.24 -175.41,1172.08 3599.39,2095.34 5742.48,4773.42 6198.75,6645.82 804.92,4617.39 -5951.12,9135.28 -6204.05,9302.78l114.01 190.03c-4.11,2.49 -22.52,13.31 -47.42,27.93 175.08,481.17 609.37,1762.39 928.67,3444.02 727.5,-534.23 2191.92,-1439.52 3763.86,-1439.52 772.44,0 1570.75,218.5 2320.45,807.19 4079.37,3690.77 -4446.32,13597.95 -4446.32,13597.95 0,0 6000.39,266.35 6604.78,2032.54l-12060.66 0 -55.43 101.67 -186.56 -101.67 -1513.58 0 261.16 828.63c74.71,237.34 -102.43,479.01 -351.24,479.01 -276.97,0 -539.97,-122.14 -718.73,-333.71l-354.82 -419.89 -232.36 410.69c-119.75,211.89 -344.42,342.91 -587.83,342.91 -229.54,0 -441,-125.17 -551.33,-326.45l-264.52 -482.59 -713.42 588.26c-172.92,142.82 -390.23,220.78 -614.46,220.78 -331.11,0 -511.93,-386.66 -299.49,-640.78l557.29 -666.75 -0.11 -0.11 -3706.37 0 -549.17 0 -549.17 0 -3706.26 0 -0.21 0.11 557.29 666.75c212.44,254.12 31.72,640.78 -299.49,640.78 -224.24,0 -441.54,-77.96 -614.46,-220.78l-713.43 -588.26 -264.51 482.59c-110.44,201.28 -321.69,326.45 -551.34,326.45 -243.4,0 -468.07,-131.02 -587.82,-342.91l-232.36 -410.69 -354.93 419.89c-178.76,211.57 -441.65,333.71 -718.62,333.71 -248.82,0 -425.95,-241.67 -351.24,-479.01l261.16 -828.63 -1513.58 0 -186.45 101.67 -55.55 -101.67 -12060.66 0c604.5,-1766.19 6604.9,-2032.54 6604.9,-2032.54 0,0 -8525.8,-9907.18 -4446.43,-13597.95 749.8,-588.8 1547.9,-807.19 2320.44,-807.19 1571.73,0.11 3036.47,905.29 3763.86,1439.52 320.5,-1687.8 756.85,-2972.26 930.52,-3449.43 -25.99,-17.44 -41.47,-28.37 -45.48,-31.19l122.25 -173.56c-1.3,-0.76 -7036.26,-4605.7 -6216.08,-9310.58 458.44,-1881.6 2577.6,-4575.81 6191.07,-6675.59 -107.74,-362.18 -167.61,-745.15 -167.61,-1142.31 0,-2210.32 1791.95,-4002.39 4002.28,-4002.39 1646.43,0 3059.2,994.73 3673.77,2415.3 263.65,-49.27 531.63,-94.2 802.43,-136.21l0 -1764.45 -4147.8 -1344.35 0 -438.19 4147.8 -1344.34 0 -188.08c0,-2.49 1.41,-4.54 1.51,-7.03 0.44,-10.94 3.69,-21.55 6.5,-32.49 2.6,-9.85 4.33,-19.7 8.77,-28.69 1.19,-2.49 0.98,-5.2 2.27,-7.58 3.69,-6.71 9.75,-10.83 14.19,-16.78 6.6,-8.99 12.88,-17.76 21.22,-25.23 7.15,-6.28 15.16,-10.83 23.39,-15.7 9.31,-5.85 18.3,-11.37 28.91,-15.16 9.85,-3.35 19.81,-4.44 30.21,-5.95 7.47,-1.09 14.4,-4.55 22.19,-4.55 2.82,0 5.09,1.52 7.8,1.62 10.61,0.44 20.79,3.58 31.4,6.28 9.96,2.6 19.92,4.44 29.02,8.88 2.49,1.09 5.19,0.98 7.68,2.38l291.16 157.44 3879.49 -1257.51zm-4087.27 6268.59l0 0c140.97,-20.25 285.84,-36.27 428.77,-54.36l0 -1416.99 -428.77 -139.03 0 1610.38zm4087.27 -10470.31l0 0c-437.21,0 -874.43,68.32 -1295.51,204.74l-2722.47 882.45c-76.12,-4.23 -152.34,-6.28 -228.57,-6.28 -276.32,0 -552.2,27.28 -824.08,81.2 -200.2,37.9 -393.47,89 -585.88,154.73 -14.18,4.76 -28.26,9.74 -42.33,14.61 -277.73,98.21 -538.02,221.32 -794.31,376.04 -173.45,103.95 -335.11,216.34 -489.51,340.75l-2866.37 929c-941.56,305.12 -1717.89,921.09 -2230.68,1712.26 -2629.68,1117.07 -4560.55,3568.53 -4938.54,6499.65 -3132.29,2309.18 -5305.15,5143.5 -5971.69,7878.53 -21.98,90.52 -41.04,181.57 -56.96,273.28 -579.38,3323.18 827.33,6292.95 2636.5,8609.39 -697.62,279.78 -1358.31,661.35 -1967.47,1139.81 -76.98,60.31 -151.69,123.33 -224.23,188.94 -1151.83,1042.15 -2989.91,3394.97 -2358.78,7444.35 279.24,1792.6 996.46,3717.3 2192.47,5884.54 101.77,184.5 205.29,367.16 309.88,547.76 -1424.14,639.91 -2839.62,1701 -3458.31,3509.09 -439.38,1283.38 -231.92,2699.95 556.86,3803.6 788.79,1103.54 2061.88,1758.49 3418.35,1758.49l10706.9 0c847.25,828.74 1998.54,1307.64 3199.42,1307.64 325.69,0 647.38,-30.53 961.59,-90.19 304.04,59.44 616.09,90.19 932.14,90.19 359.37,0 712.78,-39.84 1055.03,-116.5 355.9,76.98 720.9,116.5 1088.71,116.5 1214.09,0 2361.48,-485.94 3206.14,-1307.64l242.75 0 548.95 0 549.17 0 242.65 0c844.55,821.7 1991.94,1307.64 3206.03,1307.64 367.7,0 732.58,-39.52 1088.59,-116.5 342.37,76.66 695.78,116.5 1055.14,116.5 316.06,0 628,-30.75 932.15,-90.19 314.21,59.66 635.89,90.19 961.59,90.19 1200.88,0 2352.17,-478.9 3199.53,-1307.64l10706.78 0c1356.58,0 2629.57,-654.95 3418.36,-1758.49 788.78,-1103.65 996.23,-2520.22 556.96,-3803.6 -618.79,-1808.09 -2034.27,-2869.18 -3458.41,-3509.09 104.7,-180.6 208.1,-363.26 309.88,-547.76 1196.01,-2167.24 1913.22,-4092.04 2192.57,-5884.54 631.03,-4049.38 -1207.05,-6402.2 -2358.99,-7444.35 -72.43,-65.61 -147.14,-128.63 -224.13,-189.04 -612.29,-480.75 -1276.89,-863.93 -1978.51,-1144.04 1813.83,-2322.39 3224.76,-5293.68 2647.65,-8605.06 -16.02,-91.71 -35.08,-182.76 -57.06,-273.17 -660.04,-2708.83 -2831.18,-5529.29 -5966.72,-7839.88 -365.97,-2948.01 -2302.68,-5416.36 -4943.51,-6538.41 -512.69,-791.17 -1289.13,-1407.04 -2230.58,-1712.26l-8553.52 -2772.5c-421.08,-136.42 -858.4,-204.74 -1295.62,-204.74z"/>
</g>
<g>
<path class="fil3" d="M32535.22 13802.8c-23.18,0 -46.67,-5.52 -68.33,-17.11l-2643.21 -1429.77c-69.4,-37.68 -95.5,-124.63 -57.82,-194.36 38.12,-69.4 124.95,-94.74 194.36,-57.82l2643.21 1429.78c69.4,37.68 95.5,124.62 57.82,194.35 -26.1,47.75 -75.36,74.93 -126.03,74.93z"/>
<polygon class="fil4" points="34138.54,10989.81 25585.04,13762.3 25585.04,14200.38 42692.06,14200.38 42692.06,13762.3 "/>
<polygon class="fil5" points="34138.54,11427.89 25585.04,14200.38 34138.54,16972.88 42692.06,14200.38 "/>
<path class="fil4" d="M37797.05 18419l-7317.01 0 0 -4435.49c1083.94,-820.29 6123.82,-874.21 7317.01,0l0 4435.49z"/>
<path class="fil6" d="M49475.39 52780.86c0,0 8525.69,-9907.07 4446.21,-13597.95 -2275.19,-1786.43 -4999.28,-164.47 -6084.2,632.43 -408.63,-2151.75 -1007.39,-3654.17 -1007.39,-3654.17 0,0 7036.37,-4605.38 6216.18,-9310.69 -857.21,-3518.18 -7668.36,-9880.75 -18907.65,-9877.61 -11391.73,-3.14 -18050.43,6359.43 -18907.76,9877.61 -820.07,4705.31 6216.29,9310.69 6216.29,9310.69 0,0 -598.76,1502.42 -1007.39,3654.17 -1084.91,-796.9 -3809.01,-2418.86 -6084.3,-632.43 -4079.37,3690.88 4446.32,13597.95 4446.32,13597.95 0,0 -6000.29,266.24 -6604.79,2032.54l21392.46 0 549.17 0 549.17 0 21392.46 0c-604.39,-1766.3 -6604.78,-2032.54 -6604.78,-2032.54z"/>
<path class="fil6" d="M29421.44 54261.19l-776.98 -4381.57 -4280.34 345.29 1755.04 4252.08 -367.16 1165.04c-74.71,237.34 102.42,479.01 351.24,479.01 276.97,0 539.86,-122.03 718.62,-333.71l354.93 -419.89 232.25 410.69c119.86,211.89 344.42,342.91 587.82,342.91 229.76,0 441.01,-125.17 551.45,-326.56l264.51 -482.37 713.43 588.26c173.02,142.71 390.22,220.67 614.46,220.67 331.21,0 511.93,-386.55 299.49,-640.67l-1018.76 -1219.18z"/>
<path class="fil6" d="M42157.94 54476.99l1755.03 -4252.08 -4280.33 -345.29 -777.09 4381.57 -1018.76 1219.18c-212.33,254.12 -31.51,640.67 299.6,640.67 224.23,0 441.54,-77.96 614.46,-220.67l713.42 -588.26 264.52 482.37c110.33,201.39 321.79,326.56 551.33,326.56 243.41,0 468.08,-131.02 587.83,-342.91l232.36 -410.69 354.82 419.89c178.76,211.68 441.76,333.71 718.73,333.71 248.81,0 425.95,-241.67 351.24,-479.01l-367.16 -1165.04z"/>
<polygon class="fil7" points="24331.75,54905 18943.87,45037.13 19278.88,44854.36 24666.75,54722.12 "/>
<polygon class="fil7" points="43945.45,54905 43610.45,54722.12 48998.33,44854.36 49333.22,45037.13 "/>
<path class="fil7" d="M21851.93 41556.52c-788.14,-915.04 -1533.07,-1593.16 -1540.54,-1599.88l256.61 -282.81c7.47,6.71 768.75,699.78 1573.45,1633.44l-289.52 249.25z"/>
<path class="fil7" d="M46437.19 41484.51l-288.01 -250.65c780.01,-896.09 1502.53,-1553.64 1509.57,-1560.03l256.72 282.81c-7.15,6.28 -713.64,649.76 -1478.28,1527.87z"/>
<path class="fil7" d="M28479.55 38373.55c0,0 -2528.11,11050.99 5659,11085.21 8187.12,-34.22 5659,-11085.21 5659,-11085.21 -3608.05,892.08 -7380.68,892.08 -11318,0z"/>
<path class="fil7" d="M23185.12 37277.92c-1067.27,-413.61 -1816.64,-938.42 -1847.93,-960.84l220.12 -311.83c7.36,4.87 744.82,520.7 1765.75,916.87l-137.94 355.8z"/>
<path class="fil7" d="M44899.25 37330.97l-143.25 -354.38c1097.05,-444.26 1983.71,-973.94 1992.59,-979.14l196.63 327.43c-37.36,22.41 -919.8,549.82 -2045.97,1006.09z"/>
<path class="fil3" d="M29892 19382.43c-79.15,0 -143.24,-64.1 -143.24,-143.25l0 -7009.4c0,-79.04 64.09,-143.25 143.24,-143.25 79.04,0 143.25,64.21 143.25,143.25l0 7009.4c0,79.15 -64.21,143.25 -143.25,143.25z"/>
<path class="fil3" d="M30244.87 18867.15c-82.5,-114.66 -220.23,-157.22 -352.87,-158.41 -132.53,1.19 -270.25,43.75 -352.65,158.41 -326.34,461.03 -1062.94,2719.33 -779.58,3091.58 143.36,188.51 636.66,270.8 1132.23,263.54 495.69,7.26 989.1,-75.03 1132.34,-263.54 283.36,-372.25 -453.24,-2630.55 -779.47,-3091.58z"/>
<g>
<path class="fil6" d="M29259.03 19032.59c0,2210.44 -1791.96,4002.39 -4002.39,4002.39 -2210.33,0 -4002.28,-1791.95 -4002.28,-4002.39 0,-2210.43 1791.95,-4002.39 4002.28,-4002.39 2210.43,0 4002.39,1791.96 4002.39,4002.39z"/>
<path class="fil2" d="M27564.2 19032.59c0,1274.4 -1033.06,2307.45 -2307.56,2307.45 -1274.4,0 -2307.45,-1033.05 -2307.45,-2307.45 0,-1274.39 1033.05,-2307.45 2307.45,-2307.45 1274.5,0 2307.56,1033.06 2307.56,2307.45z"/>
<path class="fil5" d="M26807.57 19032.59c0,856.57 -694.37,1550.94 -1550.93,1550.94 -856.46,0 -1550.83,-694.37 -1550.83,-1550.94 0,-856.56 694.37,-1550.93 1550.83,-1550.93 856.56,0 1550.93,694.37 1550.93,1550.93z"/>
</g>
<g>
<path class="fil6" d="M47022.74 19032.59c0,2210.44 -1791.84,4002.39 -4002.28,4002.39 -2210.44,0 -4002.39,-1791.95 -4002.39,-4002.39 0,-2210.43 1791.95,-4002.39 4002.39,-4002.39 2210.44,0 4002.28,1791.96 4002.28,4002.39z"/>
<path class="fil2" d="M45328.02 19032.59c0,1274.4 -1033.16,2307.45 -2307.56,2307.45 -1274.4,0 -2307.56,-1033.05 -2307.56,-2307.45 0,-1274.39 1033.16,-2307.45 2307.56,-2307.45 1274.4,0 2307.56,1033.06 2307.56,2307.45z"/>
<path class="fil5" d="M44571.28 19032.59c0,856.57 -694.26,1550.94 -1550.82,1550.94 -856.56,0 -1550.93,-694.37 -1550.93,-1550.94 0,-856.56 694.37,-1550.93 1550.93,-1550.93 856.56,0 1550.82,694.37 1550.82,1550.93z"/>
</g>
<path class="fil7" d="M33752.44 20710.53c0,419.24 -186.01,759.12 -415.56,759.12 -229.43,0 -415.45,-339.88 -415.45,-759.12 0,-419.24 186.02,-759.11 415.45,-759.11 229.55,0 415.56,339.87 415.56,759.11z"/>
<path class="fil7" d="M35355.66 20710.53c0,419.24 -186.01,759.12 -415.45,759.12 -229.54,0 -415.56,-339.88 -415.56,-759.12 0,-419.24 186.02,-759.11 415.56,-759.11 229.44,0 415.45,339.87 415.45,759.11z"/>
<g>
<path class="fil7" d="M34138.76 26631.67c-3062.89,0 -6125.34,-838.92 -9166.14,-2517.51l184.29 -334.24c5960.43,3289.61 12003.7,3289.29 17963.38,0l184.28 334.24c-3040.79,1678.59 -6103.36,2517.51 -9165.81,2517.51z"/>
<path class="fil7" d="M24287.36 25016.85l-193.16 -329.7c734.75,-429.74 1105.59,-1052.65 1133.53,-1903.91l381.99 12.67c-32.48,979.13 -477.49,1726.34 -1322.36,2220.94z"/>
<path class="fil7" d="M43989.85 25016.85c-845.31,-494.6 -1290.32,-1242.13 -1322.37,-2220.94l382 -12.67c27.5,851.26 398.34,1473.74 1133.53,1903.91l-193.16 329.7z"/>
</g>
<path class="fil7" d="M22566 22543.96c0,415.88 -337.17,753.05 -753.05,753.05 -415.89,0 -752.95,-337.17 -752.95,-753.05 0,-415.89 337.06,-752.95 752.95,-752.95 415.88,0 753.05,337.06 753.05,752.95z"/>
<path class="fil7" d="M47217.1 22543.96c0,415.88 -337.07,753.05 -752.95,753.05 -415.88,0 -753.05,-337.17 -753.05,-753.05 0,-415.89 337.17,-752.95 753.05,-752.95 415.88,0 752.95,337.06 752.95,752.95z"/>
<g>
<polygon class="fil7" points="29736.41,54935.86 29242.57,54344.67 28456.6,49912.86 28832.53,49846.38 29600.63,54177.61 30029.62,54691.15 "/>
<polygon class="fil7" points="26195.38,54870.24 25831.25,54755.36 25916.36,54485.65 24187.74,50297.78 24540.61,50152.37 26322.17,54468.54 "/>
</g>
<g>
<polygon class="fil7" points="38540.79,54935.86 38247.58,54691.15 38676.57,54177.61 39444.57,49846.38 39820.61,49912.86 39034.64,54344.67 "/>
<polygon class="fil7" points="42081.82,54870.24 41954.92,54468.54 43736.48,50152.37 44089.35,50297.78 42360.85,54485.65 42445.84,54755.36 "/>
</g>
</g>
</g>
</g>
</svg>