<?xml version="1.0" ?>
<!DOCTYPE svg  PUBLIC '-//W3C//DTD SVG 1.1//EN'  'http://www.w3.org/Graphics/SVG/1.1/DTD/svg11.dtd'>
<!-- Uploaded to: SVG Repo, www.svgrepo.com, Generator: SVG Repo Mixer Tools -->
<svg width="800px" height="800px" viewBox="0 0 67733.32 67733.32" style="shape-rendering:geometricPrecision; text-rendering:geometricPrecision; image-rendering:optimizeQuality; fill-rule:evenodd; clip-rule:evenodd" version="1.1" xml:space="preserve" xmlns="http://www.w3.org/2000/svg" xmlns:xlink="http://www.w3.org/1999/xlink" xmlns:xodm="http://www.corel.com/coreldraw/odm/2003">
<defs>
<style type="text/css">
   <![CDATA[
    .fil0 {fill:none}
    .fil6 {fill:#484B60;fill-rule:nonzero}
    .fil3 {fill:#80B6C6;fill-rule:nonzero}
    .fil7 {fill:#AAD1DF;fill-rule:nonzero}
    .fil5 {fill:#CC7587;fill-rule:nonzero}
    .fil10 {fill:#DB9A3D;fill-rule:nonzero}
    .fil1 {fill:#DDCAC6;fill-rule:nonzero}
    .fil4 {fill:#DF8C9A;fill-rule:nonzero}
    .fil8 {fill:#E2E8ED;fill-rule:nonzero}
    .fil9 {fill:#FFC15B;fill-rule:nonzero}
    .fil2 {fill:white;fill-rule:nonzero}
   ]]>
  </style>
</defs>
<g id="Layer_x0020_1">
<rect class="fil0" height="67733.32" width="67733.32" x="-0" y="-0"/>
<g id="_2731019182576">
<path class="fil1" d="M57609.71 39964.75c-19.81,-355.14 -84.02,-698.59 -186.77,-1024.71l-80.78 -443.28c-257.8,-1414.83 -1206.18,-2555.73 -2459.14,-3100.68l-404.3 -6379.67c-201.72,-3183.08 -1123.03,-6257.76 -2686.31,-9007.74l796.69 -2409.01c843.25,-2549.01 -453.67,-5315.44 -2952.55,-6297.82l-4680.63 -1840.89c-593.13,-233.23 -1216.04,-351.47 -1851.83,-351.47 -825.49,0 -1617.41,203.34 -2319.79,567.8 -1372.28,-1688.23 -3465.67,-2757.34 -5811.67,-2757.34l-2755.93 0c-2346.1,0 -4439.49,1069.11 -5811.77,2757.23 -702.16,-364.35 -1493.87,-567.58 -2319.15,-567.69 -635.57,-0.1 -1258.59,118.02 -1851.5,351.14l-4682.03 1841.54c-2498.02,981.95 -3795.05,3748.27 -2951.91,6297.5l796.8 2409.23c-1563.28,2749.97 -2484.48,5824.55 -2686.2,9007.52l-404.3 6379.57c-1253.17,544.95 -2201.56,1685.95 -2459.47,3101l-80.88 444.03c-102.43,325.59 -166.42,668.28 -186.34,1022.77l-1001.33 5493.34c-578.95,3176.9 660.59,6348.06 3092.88,8304.48 1159.63,4406.58 5187.35,7674.33 9939.87,7674.33l23963.67 0c4751.87,0 8780.79,-3267.64 9942.04,-7673.68 2432.94,-1956.64 3672.8,-5128.02 3093.74,-8305.02l-1001.11 -5492.48z"/>
<g>
<path class="fil2" d="M55021.07 45588.02l-1062.5 -5829.21 0 -177.24 -32.27 0 -173.89 -953.91 -2291.43 0 -631.67 -9968.02c-205.83,-3246.95 -1330.92,-6227.23 -3108.8,-8698.28l1423.28 -4303.61c143.03,-432.45 -76.77,-901.39 -500.67,-1068.14l-4681.27 -1841.22c-471.97,-185.47 -1001.11,76.45 -1139.71,564.44l-514.63 1812.96c-1100.4,-617.17 -2276.05,-1114.15 -3510.17,-1471.57 -70.49,-1751.35 -1513.03,-3155.13 -3280.95,-3155.13l-2755.93 0c-1767.91,0 -3210.46,1403.89 -3280.84,3155.13 -1234.01,357.64 -2409.56,854.51 -3510.06,1471.68l-514.64 -1813.07c-138.48,-487.99 -667.62,-749.91 -1139.59,-564.44l-4681.39 1841.22c-423.89,166.75 -643.69,635.69 -500.66,1068.14l1423.49 4303.72c-1777.87,2471.16 -2902.96,5451.32 -3108.79,8698.17l-631.68 9968.02 -2291.64 0 -173.78 953.91 -32.16 0 0 176.49 -1062.72 5829.96c-364.02,1997.46 666.65,3988.97 2507.65,4845.31l318 147.8c24.26,3308.78 2710.67,6030.49 6073.48,6030.49l23963.78 0c3363.56,0 6050.63,-2721.28 6076.61,-6030.49l317.9 -147.8c1841.11,-856.34 2871.78,-2847.85 2507.65,-4845.31zm-22260.61 -34025.34l0 0 2755.93 0c1086.86,0 1992.59,784.24 2184.88,1816.43 -1149.66,-249.9 -2340.8,-385.79 -3562.57,-385.79l-0.11 0c-1221.89,0 -2413.13,136 -3563.01,385.9 192.3,-1032.3 1098.13,-1816.54 2184.88,-1816.54z"/>
<path class="fil2" d="M35516.39 10499.1c1767.92,0 3210.46,1403.78 3280.95,3155.03 1234.12,357.52 2409.77,854.5 3510.17,1471.67l514.74 -1812.96c108.06,-381.02 454.43,-624.2 825.71,-624.2 104.16,0 210.38,19.16 313.89,59.76l4681.27 1841.22c423.9,166.75 643.7,635.69 500.67,1068.14l-1423.28 4303.61c1777.88,2471.05 2902.97,5451.33 3108.8,8698.28l631.67 9967.92 2291.43 0 173.89 954.01 32.27 0 0 177.24 1062.5 5829.1c364.02,1997.57 -666.54,3989.08 -2507.65,4845.42l-317.9 147.8c-25.98,3309.21 -2713.05,6030.49 -6076.61,6030.49l-23963.78 0c-3362.81,0 -6049.22,-2721.71 -6073.48,-6030.49l-318 -147.8c-1841,-856.34 -2871.67,-2847.85 -2507.54,-4845.42l1062.5 -5829.85 0 -176.49 32.27 0 173.78 -954.01 2291.64 0 631.79 -9967.92c205.72,-3246.85 1330.81,-6227.01 3108.68,-8698.17l-1423.49 -4303.72c-143.03,-432.45 76.77,-901.39 500.66,-1068.14l4681.39 -1841.22c103.4,-40.6 209.62,-59.76 313.89,-59.76 371.27,0 717.64,243.18 825.7,624.2l514.64 1813.18c1100.5,-617.28 2275.94,-1114.26 3510.06,-1471.79 70.38,-1751.24 1512.93,-3155.13 3280.84,-3155.13l2755.93 0zm-4940.81 2880.12l0 0c1149.88,-249.9 2341.12,-385.9 3563.01,-385.9l0.11 0c1221.77,0 2412.91,135.89 3562.57,385.79 -192.29,-1032.19 -1098.02,-1816.32 -2184.88,-1816.32l-2755.93 0c-1086.75,0 -1992.58,784.13 -2184.88,1816.43zm4940.81 -7081.85l0 0 -2755.93 0c-2346.1,0 -4439.39,1069.11 -5811.66,2757.23 -702.17,-364.35 -1493.88,-567.58 -2319.26,-567.69 -635.57,-0.11 -1258.48,118.13 -1851.39,351.25l-4682.15 1841.43c-2498.01,981.95 -3794.93,3748.27 -2951.9,6297.5l796.91 2409.34c-1563.28,2749.86 -2484.49,5824.44 -2686.2,9007.4l-404.3 6379.57c-1253.18,544.95 -2201.67,1685.96 -2459.47,3101l-80.88 444.04c-102.54,325.58 -166.42,668.27 -186.45,1022.77l-1001.22 5493.34c-579.06,3176.9 660.58,6348.17 3092.88,8304.48 1159.51,4406.58 5187.35,7674.32 9939.76,7674.32l23963.78 0c4751.87,0 8780.78,-3267.63 9941.93,-7673.67 2433.05,-1956.53 3672.9,-5128.02 3093.85,-8305.03l-1001.11 -5492.36c-19.93,-355.25 -84.02,-698.59 -186.78,-1024.82l-80.77 -443.28c-257.91,-1414.83 -1206.19,-2555.73 -2459.15,-3100.68l-404.4 -6379.68c-201.72,-3183.07 -1122.92,-6257.76 -2686.2,-9007.73l796.69 -2409.01c843.14,-2549.01 -453.67,-5315.44 -2952.56,-6297.82l-4680.73 -1840.9c-593.02,-233.22 -1215.93,-351.46 -1851.72,-351.46 -825.49,0 -1617.52,203.34 -2319.8,567.8 -1372.27,-1688.12 -3465.67,-2757.34 -5811.77,-2757.34z"/>
</g>
<g>
<path class="fil3" d="M26753.48 17887.47l-1298.55 -4574.63c-138.48,-487.99 -667.62,-749.91 -1139.59,-564.33l-4681.39 1841.11c-423.89,166.75 -643.69,635.69 -500.66,1068.14l2689.66 8132c229.65,694.37 1166.88,801.67 1547.58,177.14l3290.26 -5398.49c124.41,-204.1 157.98,-450.97 92.69,-680.94z"/>
<path class="fil3" d="M41523.6 17887.47l1298.54 -4574.63c138.6,-487.99 667.74,-749.91 1139.71,-564.33l4681.27 1841.11c423.9,166.75 643.7,635.69 500.67,1068.14l-2689.56 8132c-229.65,694.37 -1166.99,801.67 -1547.57,177.14l-3290.27 -5398.49c-124.41,-204.1 -158.08,-450.97 -92.79,-680.94z"/>
<g>
<g>
<path class="fil4" d="M17309.72 38627.66l-2785.05 0 -1268.55 6960.36c-364.13,1997.46 666.54,3988.97 2507.54,4845.31l528.82 245.9 1017.24 -12051.57z"/>
<polygon class="fil5" points="18310.29,39949.81 14318.62,39949.81 14318.62,39567.93 18310.29,39567.93 "/>
</g>
<g>
<path class="fil4" d="M50967.36 38627.66l2785.05 0 1268.66 6960.36c364.13,1997.46 -666.54,3988.97 -2507.65,4845.31l-528.82 245.9 -1017.24 -12051.57z"/>
<polygon class="fil5" points="53958.57,39949.81 49966.9,39949.81 49966.9,39567.93 53958.57,39567.93 "/>
</g>
</g>
<path class="fil6" d="M38845.31 13787.09l-1145.88 0c0,-1203.7 -979.13,-2183.26 -2182.93,-2183.26l-2755.82 0c-1203.8,0 -2182.94,979.56 -2182.94,2183.26l-1145.87 0c0,-1835.59 1493.11,-3329.14 3328.81,-3329.14l2755.82 0c1835.69,0 3328.81,1493.55 3328.81,3329.14z"/>
<path class="fil7" d="M46118.91 56611.62l-23963.78 0c-3509.74,0 -6290.78,-2962.84 -6068.82,-6465.54l1361.78 -21486.44c558.15,-8808.07 7864.78,-15666.33 16690.61,-15666.33 8825.72,0 16132.34,6858.26 16690.61,15666.33l1361.45 21483.08c222.18,3504.54 -2560.28,6468.9 -6071.85,6468.9z"/>
<path class="fil3" d="M49014.94 27656.26c-1005.33,-7403.63 -7400.71,-12986.62 -14876.35,-12986.62 -7475.64,0 -13871.13,5582.99 -14875.92,12986.62l-378.31 -51.43c1030.34,-7592.03 7588.35,-13317.08 15254.23,-13317.08 7665.88,0 14223.88,5725.05 15254.56,13317.08l-378.21 51.43z"/>
<polygon class="fil3" points="19984.12,27882.02 18162.93,27882.02 18162.93,27500.02 19984.12,27500.02 "/>
<polygon class="fil3" points="50114.15,27882.02 48293.5,27882.02 48293.5,27500.02 50114.15,27500.02 "/>
<path class="fil2" d="M37353.93 23076.44c0,1775.72 -1439.52,3215.23 -3215.23,3215.23 -1775.72,0 -3215.23,-1439.51 -3215.23,-3215.23 0,-1775.71 1439.51,-3215.23 3215.23,-3215.23 1775.71,0 3215.23,1439.52 3215.23,3215.23z"/>
<path class="fil8" d="M34138.59 25566.66c-1373.04,0 -2489.9,-1117.18 -2489.9,-2490.22 0,-1373.14 1116.86,-2490 2489.9,-2490 1373.04,0 2490.22,1116.86 2490.22,2490 0,1373.04 -1117.18,2490.22 -2490.22,2490.22zm0 -4598.22l0 0c-1162.34,0 -2107.9,945.67 -2107.9,2108 0,1162.66 945.56,2108.23 2107.9,2108.23 1162.66,0 2108.33,-945.57 2108.33,-2108.23 0,-1162.33 -945.67,-2108 -2108.33,-2108z"/>
<path class="fil9" d="M44857.72 53603.3l-21438.04 0c-1117.19,0 -2022.91,-905.72 -2022.91,-2022.9l0 -10929.94c0,-1117.18 905.72,-2022.8 2022.91,-2022.8l21438.04 0c1117.18,0 2022.9,905.62 2022.9,2022.8l0 10929.94c0,1117.18 -905.72,2022.9 -2022.9,2022.9z"/>
<polygon class="fil10" points="46880.51,42015.27 21396.67,42015.27 21396.67,41728.77 46880.51,41728.77 "/>
<g>
<polygon class="fil10" points="24582.45,45238.51 22810.75,45238.51 23240.92,41871.91 24152.28,41871.91 "/>
<path class="fil10" d="M24744.87 45381.76l-2096.75 0 466.66 -3652.99 1163.42 0 466.67 3652.99zm-1771.49 -286.5l0 0 1446.23 0 -393.58 -3079.99 -659.07 0 -393.58 3079.99z"/>
</g>
<path class="fil2" d="M37353.93 23076.44c0,1775.72 -1439.52,3215.23 -3215.23,3215.23 -1775.72,0 -3215.23,-1439.51 -3215.23,-3215.23 0,-1775.71 1439.51,-3215.23 3215.23,-3215.23 1775.71,0 3215.23,1439.52 3215.23,3215.23z"/>
</g>
</g>
</g>
</svg>