<?xml version="1.0" ?>
<!DOCTYPE svg  PUBLIC '-//W3C//DTD SVG 1.1//EN'  'http://www.w3.org/Graphics/SVG/1.1/DTD/svg11.dtd'>
<!-- Uploaded to: SVG Repo, www.svgrepo.com, Generator: SVG Repo Mixer Tools -->
<svg width="800px" height="800px" viewBox="0 0 67733.32 67733.32" style="shape-rendering:geometricPrecision; text-rendering:geometricPrecision; image-rendering:optimizeQuality; fill-rule:evenodd; clip-rule:evenodd" version="1.1" xml:space="preserve" xmlns="http://www.w3.org/2000/svg" xmlns:xlink="http://www.w3.org/1999/xlink" xmlns:xodm="http://www.corel.com/coreldraw/odm/2003">
<defs>
<style type="text/css">
   <![CDATA[
    .fil0 {fill:none}
    .fil4 {fill:#484B60;fill-rule:nonzero}
    .fil5 {fill:#97C6D3;fill-rule:nonzero}
    .fil3 {fill:#AAD1DF;fill-rule:nonzero}
    .fil1 {fill:#DDCAC6;fill-rule:nonzero}
    .fil2 {fill:white;fill-rule:nonzero}
   ]]>
  </style>
</defs>
<g id="Layer_x0020_1">
<rect class="fil0" height="67733.32" width="67733.32" x="-0" y="-0"/>
<g id="_2730824540784">
<path class="fil1" d="M10923.07 55217.04l45274.15 374.1c11.48,0 23.17,0.1 34.76,0.1 1107.87,0 2171.35,-437.54 2958.62,-1218.31 795.49,-789 1243,-1862.98 1243,-2983.3l0 -3107.93c0,-986.5 -340.1,-1893.63 -909.19,-2610.51l0 -22986.49c569.09,-716.89 909.19,-1624.02 909.19,-2610.51l0 -2733.84c0,-2307.02 -1860.06,-4182.56 -4167.08,-4201.62l-45274.15 -373.98c-11.48,-0.11 -23.17,-0.11 -34.65,-0.11 -1107.87,0 -2171.46,437.65 -2958.72,1218.42 -795.5,788.9 -1243,1862.88 -1243,2983.31l0 3107.82c0,986.49 340.09,1893.62 909.18,2610.62l0 22986.27c-569.09,716.89 -909.18,1624.12 -909.18,2610.62l0 2733.84c0,2307.01 1860.06,4182.45 4167.07,4201.5z"/>
<g>
<polygon class="fil2" points="56775.74,19451.62 56775.74,16717.78 11501.48,16343.8 11501.48,19451.62 12410.67,19451.62 12410.67,47659.12 11501.48,47659.12 11501.48,50392.95 56775.74,50767.05 56775.74,47659.12 55866.55,47659.12 55866.55,19451.62 "/>
<path class="fil2" d="M11501.48 16343.8l45274.26 373.98 0 2733.84 -909.19 0 0 28207.51 909.19 0 0 3107.93 -45274.26 -373.99 0 -2733.94 909.19 0 0 -28207.51 -909.19 0 0 -3107.82zm0 -4201.73l0 0c-1107.87,0 -2171.46,437.65 -2958.73,1218.42 -795.49,789 -1242.89,1862.98 -1242.89,2983.31l0 3107.82c0,986.6 340.1,1893.73 909.19,2610.62l0 22986.26c-569.09,717 -909.19,1624.13 -909.19,2610.63l0 2733.94c0,2306.91 1860.06,4182.45 4166.97,4201.4l45274.15 374.09c11.59,0.11 23.28,0.22 34.86,0.22 1107.88,0 2171.35,-437.65 2958.62,-1218.42 795.5,-788.89 1242.89,-1862.98 1242.89,-2983.3l0 -3107.93c0,-986.5 -339.98,-1893.63 -909.08,-2610.52l0 -22986.48c569.1,-716.89 909.08,-1623.91 909.08,-2610.51l0 -2733.84c0,-2307.02 -1860.06,-4182.45 -4166.97,-4201.51l-45274.14 -374.09c-11.48,0 -23.18,-0.11 -34.76,-0.11z"/>
</g>
<g>
<polygon class="fil3" points="55866.55,49455.29 12410.67,49455.29 12410.67,16717.78 55866.55,16717.78 "/>
<polygon class="fil4" points="56775.74,19451.72 11501.59,19451.72 11501.59,16343.8 56775.74,16717.78 "/>
<polygon class="fil4" points="56775.74,50767.05 11501.59,50393.06 11501.59,47659.12 56775.74,47659.12 "/>
<path class="fil2" d="M22727.88 47659.12l-4336.21 0c-330.88,0 -598.97,-268.2 -598.97,-598.98l0 -163.39c0,-330.78 268.09,-598.87 598.97,-598.87l4336.21 0c330.78,0 598.97,268.09 598.97,598.87l0 163.39c0,330.78 -268.19,598.98 -598.97,598.98z"/>
<path class="fil5" d="M17022.75 25588.11c427.58,-1307.42 28998.03,-5885.62 29603.61,-4621.29 605.58,1264.44 -5184.64,2556.27 -4842.6,3821.68 342.04,1265.3 12580.37,-2213.9 13008.06,-887.97 427.69,1325.94 -6532.34,5305.59 -6389.96,6308.87 142.38,1003.39 5305.69,-394.77 5705.12,1003.39 399.32,1398.04 -10918.68,4932.79 -10611.93,6034.06 306.85,1101.27 10250.94,-371.49 10783.33,1520.51 532.39,1892 -32869.84,6555.84 -33465.46,5507.63 -595.51,-1048.21 6622.22,-2806.82 6079.98,-3910.14 -542.25,-1103.33 -11125.6,2662.27 -11596.27,1535.45 -470.67,-1126.82 7674.11,-2910.98 7374.4,-3760.51 -299.81,-849.52 -4407.12,418.7 -4792.47,-570.5 -385.35,-989.2 7530.75,-3941.75 7117.03,-5154.11 -413.61,-1212.36 -10283.21,38.65 -10597.32,-1349.97 -314,-1388.52 6133.46,-2453.52 5762.4,-3575.57 -371.16,-1122.06 -3565.6,-594 -3137.92,-1901.53z"/>
<g>
<path class="fil2" d="M23212.95 35328.64c37.25,107.41 69.08,265.49 96.04,474.46 26.74,208.97 45.37,432.12 55.98,669.9 10.18,237.77 18.62,451.4 24.79,641.74 6.17,190.24 6.93,316.28 2.93,378.32l-4967.45 272.85c-8.34,-33.24 -28.04,-123.11 -58.79,-269.93 -30.97,-146.82 -66.38,-321.36 -105.57,-524.05 -39.41,-202.37 -73.41,-409.06 -102.21,-620.2 -29.24,-210.81 -47.54,-394.45 -55.87,-551.99 136.21,-123.76 294.4,-273.5 474.46,-449.56 179.63,-175.62 380.26,-384.26 601.58,-626.37 220.88,-241.78 462,-523.83 722.41,-846.28 210.81,-252.06 398.88,-490.92 564.33,-716.24 165.44,-225.42 307.93,-436.13 427.68,-632.65 120.19,-196.52 211.9,-376.25 276.1,-539.42 64,-163.28 96.04,-307.18 96.04,-431.05 0,-120.18 -36.05,-204.85 -108.38,-254.23 -72.33,-49.59 -156.02,-74.49 -251.31,-74.49 -169.45,0 -344.09,54.79 -523.83,164.36 -180.06,109.58 -345.51,250.98 -496.33,424.76 -150.83,173.46 -273.94,359.8 -368.9,558.16 -148.66,-74.49 -327.64,-178.98 -536.61,-313.45 -208.54,-133.94 -407.98,-273.51 -598.22,-418.49 -190.24,-144.65 -334.89,-266.68 -434.29,-365.64 198.69,-393.04 466.45,-745.48 803.19,-1057.42 337.16,-312.26 713.31,-560.32 1128.66,-744.39 415.55,-183.74 840.43,-275.78 1274.72,-275.78 649,0 1159.62,187 1531.44,561.09 372.25,374.3 558.48,883.85 558.48,1528.95 0,409.06 -86.94,850.61 -260.83,1323.99 -173.46,473.38 -452.48,949.68 -837.08,1429.23 -190.34,239.94 -356.55,445.55 -499.36,617.28 -142.38,171.29 -264.41,315.18 -365.65,430.93 -101.45,115.85 -188.39,211.89 -260.29,288.23 -72.76,76.66 -135.56,139.46 -189.26,189.16 103.4,-12.46 226.07,-26.64 368.89,-43.42 142.49,-16.46 297.65,-34 464.93,-52.62 167.72,-18.63 340.1,-37.25 517.99,-55.87 177.9,-18.63 354.6,-35.09 530.33,-49.7 175.63,-14.19 341.83,-27.72 499.26,-40.17z"/>
<path class="fil2" d="M25414.29 37871.15c-136.21,-107.41 -293.64,-240.69 -471.1,-399.96 -177.9,-158.84 -350.71,-325.48 -517.99,-499.26 -167.29,-173.46 -309.02,-336.85 -424.77,-489.84 62.15,-62.04 158.95,-159.27 291.48,-291.47 132.21,-132.21 283.14,-286.39 452.48,-462.01 169.56,-175.74 347.46,-360.56 533.69,-555.24 185.91,-193.92 367.81,-384.16 545.71,-570.5 177.46,-185.91 336.73,-353.19 477.38,-502.18 -293.64,-326.56 -559.24,-620.2 -797.01,-880.6 -237.77,-260.4 -449.56,-490.92 -635.47,-691.45 -186.01,-200.52 -350.38,-376.25 -493.08,-527.08 -142.49,-150.83 -267.77,-284.11 -375.18,-399.97 32.92,-41.25 112.5,-115.75 238.86,-223.48 126.03,-107.41 272.85,-224.24 440.14,-350.27 167.61,-126.03 329.8,-245.03 486.91,-356.55 157.11,-111.74 281.19,-192.4 372.14,-242.1 115.42,120.18 261.16,281.19 437.22,483.99 175.73,202.69 359.47,419.67 551.88,651.16 192.18,231.6 371.05,454.76 536.17,669.58 165.45,215.14 299.93,392.93 403.22,533.58 239.61,-343.34 475.55,-700.87 707.15,-1073.12 231.6,-372.14 479.65,-787.48 744.06,-1246.57 297.65,132.64 619.12,288.55 964.19,468.29 345.18,180.06 627.56,338.25 846.71,474.46 -132.2,231.49 -314.1,512.79 -545.7,843.36 -231.6,330.89 -479.55,664.7 -744.39,1001.43 -264.41,337.17 -516.8,635.9 -756.41,896.41 165.44,198.26 324.39,398.78 477.38,601.58 152.99,202.69 306.09,410.15 459.09,623.02 152.66,212.97 310.85,435.37 474.46,666.97 163.28,231.6 333.81,475.22 511.71,731.62 -235.93,185.9 -500.34,365.97 -793.98,539.42 -293.65,173.89 -578.95,337.17 -855.81,490.27 -99.4,-136.64 -199.44,-276.21 -300.57,-419.02 -101.56,-142.49 -203.88,-285.96 -307.18,-430.94 -103.4,-144.65 -208.97,-289.31 -316.38,-433.96 -107.3,-144.66 -215.79,-287.48 -325.37,-428.12 -109.57,-140.22 -220.23,-279.03 -332.08,-415.24 -185.9,235.61 -356.44,450.75 -511.27,645 -155.27,194.35 -301.01,368.89 -437.22,523.83 -136.64,155.16 -264.84,296.89 -384.59,424.76 -119.86,128.2 -230.52,242.86 -331.65,344.43 -101.56,101.13 -199.87,193.27 -294.83,275.77z"/>
<path class="fil2" d="M36465.71 35328.64c37.24,107.41 68.97,265.49 96.04,474.46 26.63,208.97 45.26,432.12 55.87,669.9 10.17,237.77 18.62,451.4 24.79,641.74 6.17,190.24 6.93,316.28 2.92,378.32l-4967.33 272.85c-8.45,-33.24 -28.15,-123.11 -58.8,-269.93 -31.07,-146.82 -66.48,-321.36 -105.56,-524.05 -39.53,-202.37 -73.42,-409.06 -102.32,-620.2 -29.24,-210.81 -47.43,-394.45 -55.87,-551.99 136.21,-123.76 294.4,-273.5 474.46,-449.56 179.73,-175.62 380.26,-384.26 601.57,-626.37 220.99,-241.78 462.01,-523.83 722.41,-846.28 210.82,-252.06 398.89,-490.92 564.33,-716.24 165.45,-225.42 307.94,-436.13 427.69,-632.65 120.19,-196.52 211.9,-376.25 276.21,-539.42 63.88,-163.28 96.04,-307.18 96.04,-431.05 0,-120.18 -36.16,-204.85 -108.49,-254.23 -72.33,-49.59 -155.92,-74.49 -251.31,-74.49 -169.45,0 -343.99,54.79 -523.72,164.36 -180.07,109.58 -345.51,250.98 -496.45,424.76 -150.82,173.46 -273.93,359.8 -368.89,558.16 -148.66,-74.49 -327.64,-178.98 -536.5,-313.45 -208.54,-133.94 -407.98,-273.51 -598.33,-418.49 -190.24,-144.65 -334.89,-266.68 -434.18,-365.64 198.68,-393.04 466.34,-745.48 803.07,-1057.42 337.17,-312.26 713.32,-560.32 1128.66,-744.39 415.67,-183.74 840.43,-275.78 1274.73,-275.78 649.11,0 1159.62,187 1531.44,561.09 372.25,374.3 558.48,883.85 558.48,1528.95 0,409.06 -86.94,850.61 -260.72,1323.99 -173.57,473.38 -452.59,949.68 -837.19,1429.23 -190.24,239.94 -356.44,445.55 -499.25,617.28 -142.49,171.29 -264.52,315.18 -365.65,430.93 -101.56,115.85 -188.51,211.89 -260.4,288.23 -72.76,76.66 -135.56,139.46 -189.27,189.16 103.41,-12.46 226.08,-26.64 368.9,-43.42 142.49,-16.46 297.75,-34 465.04,-52.62 167.61,-18.63 339.98,-37.25 517.88,-55.87 177.9,-18.63 354.71,-35.09 530.33,-49.7 175.73,-14.19 341.83,-27.72 499.37,-40.17z"/>
<path class="fil2" d="M37668.21 33542.54c378.42,-41.25 785.97,-77.42 1221.67,-108.38 436.13,-31.08 877.13,-54.79 1323.66,-71.25 446.2,-16.89 870.86,-24.9 1273.86,-24.9 246.76,0 480.31,2.92 700.86,9.2 220.67,6.17 419.57,15.7 596.6,28.05 10.5,70.16 23.39,195.11 38.98,375.17 15.7,179.63 30.42,376.15 44.5,589.12 13.86,212.98 25.23,406.14 33.78,579.71 8.55,173.78 12.89,289.63 12.89,347.35 -121.49,0 -309.89,0 -565.2,0 -255.42,0 -550.58,-1.2 -885.69,-2.93 -335.44,-2.27 -685.27,-3.35 -1049.95,-3.35 -364.77,0 -720.78,-1.09 -1068.24,-2.93 -347.34,-2.16 -661.02,-4.33 -940.58,-6.17 -279.57,-2.17 -499.37,-1.08 -659.18,2.92 -6.72,-53.7 -15.7,-152.66 -26.1,-297.64 -10.5,-144.66 -19.92,-309.02 -28.58,-493.2 -8.56,-183.63 -14.73,-359.36 -18.08,-526.97 -3.68,-167.29 -5.2,-298.84 -5.2,-393.8zm348.97 -2641.8l0 0c149.42,-37.25 369.11,-75.58 659.18,-114.67 289.96,-39.52 616.52,-76.76 979.56,-111.74 363.05,-35.08 735.63,-67.24 1117.73,-96.15 381.99,-28.8 746.01,-52.51 1091.52,-71.24 345.51,-18.52 640.12,-28.04 883.2,-28.04 10.39,70.48 23.71,203.77 39.3,399.96 15.38,196.42 30.1,412.75 44.18,648.25 13.86,235.6 26.74,449.66 38.98,641.74 12.23,192.19 18.41,317.47 18.41,375.18 -191.22,0 -457.9,1.08 -800.05,3.25 -342.15,2.16 -719.92,5.08 -1133.31,9.09 -413.4,4.44 -824.95,8.45 -1234.88,12.45 -409.72,4.44 -779.8,7.26 -1109.71,9.53 -330.24,2.17 -581.87,5.09 -755.55,9.1 0,-90.96 3.36,-219.15 10.4,-384.6 6.82,-165.12 18.08,-338.9 33.78,-520.8 15.59,-181.9 33.13,-345.18 52.19,-489.84 19.05,-144.65 40.82,-241.78 65.07,-291.47z"/>
<path class="fil2" d="M47913.63 34845.08c-318.54,0 -602.65,-4.44 -852.88,-12.45 -250.11,-8.34 -489.73,-19.71 -719.16,-34.32 -229.76,-14.3 -476.63,-36.17 -741.04,-64.97 0,-558.16 113.58,-1048.32 341.07,-1469.83 227.27,-421.84 539.53,-812.28 936.15,-1172.08 211.13,-194.36 383.51,-375.07 517.98,-542.79 134.37,-167.28 201.61,-335.65 201.61,-505.42 0,-181.91 -66.15,-322.23 -198.36,-421.52 -132.63,-99.4 -299.81,-149.09 -502.61,-149.09 -165.44,0 -320.28,27.07 -464.93,80.77 -144.98,53.7 -278.27,132.2 -399.97,235.61 -121.92,103.29 -234.85,234.84 -338.15,393.68 -103.4,159.28 -196.19,346.7 -279.13,561.41l-1748.75 -1023.09c107.41,-467.1 321.36,-863.06 642.07,-1187.78 320.39,-324.28 708.99,-572.67 1165.91,-743.96 456.49,-171.72 941.23,-257.48 1454.02,-257.48 541.71,0 1036.63,81.75 1485.43,245.03 448.58,163.28 806.11,411.23 1072.79,743.96 266.68,332.84 399.97,749.59 399.97,1249.6 0,372.14 -47.53,683.33 -142.49,933.55 -95.28,250.22 -219.15,466.02 -372.14,647.92 -153.1,181.9 -318.55,353.63 -496.01,514.63 -161.44,140.65 -313.46,311.18 -455.84,511.71 -142.81,200.63 -259.75,422.6 -350.7,666.65 -90.95,243.94 -142.38,510.62 -154.84,800.26zm-1010.96 2877.41l0 0c-367.81,0 -691.45,-104.48 -970.47,-313.35 -279.03,-208.53 -418.59,-503.37 -418.59,-883.52 0,-210.81 62.8,-407.33 189.15,-589.23 126.04,-181.91 291.48,-329.81 496.01,-443.39 204.53,-113.58 424.87,-170.53 660.37,-170.53 401.05,0 739.31,103.29 1014,310.1 275.02,206.69 412.74,475.54 412.74,806.1 0,239.94 -64.31,456.92 -192.51,651.17 -128.2,194.35 -296.56,348.54 -505.54,462.01 -208.53,113.69 -437.21,170.64 -685.16,170.64z"/>
</g>
</g>
</g>
</g>
</svg>