<?xml version="1.0" encoding="iso-8859-1"?>
<!-- Uploaded to: SVG Repo, www.svgrepo.com, Generator: SVG Repo Mixer Tools -->
<svg height="800px" width="800px" version="1.1" id="Layer_1" xmlns="http://www.w3.org/2000/svg" xmlns:xlink="http://www.w3.org/1999/xlink" 
	 viewBox="0 0 512 512" xml:space="preserve">
<polygon style="fill:#C1C1C1;" points="511.999,0.001 326.054,143.885 234.472,277.529 353.939,396.997 "/>
<polygon style="fill:#DFDFDF;" points="512,0.001 115.004,158.062 234.472,277.529 511.999,0.001 "/>
<path style="fill:#9B9B9B;" d="M326.054,185.946l-183.15,168.938l34.486,11.259l149.8-149.8c8.08-8.08,8.08-21.18,0-29.261
	L326.054,185.946z"/>
<path style="fill:#C1C1C1;" d="M324.917,184.809c-8.08-8.08-21.18-8.08-29.261,0l-149.8,149.801l7.761,23.773l172.436-172.436
	L324.917,184.809z"/>
<path style="fill:#C75214;" d="M13.825,501.947c13.403,13.403,35.134,13.403,48.537,0L187.779,376.53l-26.155-26.154l-76.586,53.648
	l-73.1,96.037L13.825,501.947z"/>
<path style="fill:#E37E31;" d="M10.052,449.639c-13.403,13.403-13.403,35.134,0,48.537l1.886,1.886l149.685-149.685l-26.155-26.155
	L10.052,449.639z"/>
</svg>