<?xml version="1.0" encoding="iso-8859-1"?>
<!-- Uploaded to: SVG Repo, www.svgrepo.com, Generator: SVG Repo Mixer Tools -->
<svg version="1.1" id="Layer_1" xmlns="http://www.w3.org/2000/svg" xmlns:xlink="http://www.w3.org/1999/xlink" 
	 viewBox="0 0 512 512" xml:space="preserve">
<rect x="239.304" y="254.987" style="fill:#444444;" width="33.391" height="55.942"/>
<path style="fill:#B0B0B0;" d="M272.696,429.799v-53.598h-33.391v53.598c-24.062,5.328-44.446,21.995-54.286,45.441l30.789,12.924
	c4.557-10.858,13.103-19.131,23.497-23.452v23.204h33.391v-23.204c10.396,4.322,18.941,12.594,23.497,23.452l30.789-12.924
	C317.142,451.794,296.757,435.128,272.696,429.799z"/>
<path style="fill:#8B8B8B;" d="M272.696,429.799v-53.598H256v111.714h16.696v-23.204c10.396,4.322,18.941,12.594,23.497,23.452
	l30.789-12.924C317.142,451.794,296.757,435.128,272.696,429.799z"/>
<rect x="478.609" y="204.911" style="fill:#82370D;" width="33.391" height="281.912"/>
<rect y="204.911" style="fill:#E0711B;" width="33.391" height="281.912"/>
<path style="fill:#82370D;" d="M512,271.683H0V152.17h512V271.683z"/>
<path style="fill:#5B370D;" d="M512,271.683H256.016V152.17H512V271.683z"/>
<path style="fill:#70C9D8;" d="M367.693,271.683H144.307L125.206,23.836h261.587L367.693,271.683z"/>
<g>
	<path style="fill:#53B8DA;" d="M367.693,271.683H256.016V23.836h130.778L367.693,271.683z"/>
	<path style="fill:#53B8DA;" d="M391.828,392.898H120.172v-98.661h271.656V392.898z"/>
</g>
<path style="fill:#17778D;" d="M391.828,392.898H256.014v-98.661h135.814V392.898z"/>
</svg>