<?xml version="1.0" ?>
<!-- Uploaded to: SVG Repo, www.svgrepo.com, Generator: SVG Repo Mixer Tools -->
<svg width="800px" height="800px" viewBox="-4.8 0 22.272251 22.272251" id="svg8" version="1.1" xmlns="http://www.w3.org/2000/svg" xmlns:cc="http://creativecommons.org/ns#" xmlns:dc="http://purl.org/dc/elements/1.1/" xmlns:inkscape="http://www.inkscape.org/namespaces/inkscape" xmlns:rdf="http://www.w3.org/1999/02/22-rdf-syntax-ns#" xmlns:sodipodi="http://sodipodi.sourceforge.net/DTD/sodipodi-0.dtd" xmlns:svg="http://www.w3.org/2000/svg">
<defs id="defs2">
<clipPath clipPathUnits="userSpaceOnUse" id="clipPath23">
<rect height="170.00711" id="rect25" style="opacity:1;fill:none;fill-opacity:1;stroke:#000000;stroke-width:1.5;stroke-linecap:round;stroke-linejoin:round;stroke-miterlimit:4;stroke-dasharray:none;stroke-dashoffset:0;stroke-opacity:0.97641512" transform="rotate(90)" width="263.84616" x="6.7847877" y="110.36194"/>
</clipPath>
</defs>
<g id="layer1" transform="translate(18.10732,-489.15387)">
<rect height="58.184261" id="rect8011" ry="1.1433572" style="opacity:1;fill:none;fill-opacity:1;stroke:none;stroke-width:1.10699999;stroke-linecap:round;stroke-linejoin:round;stroke-miterlimit:4;stroke-dasharray:none;stroke-dashoffset:0;stroke-opacity:1" width="150.11761" x="-377.22021" y="-198.90477"/>
</g>
<g id="g8681" transform="translate(18.10732,-489.15387)">
<rect height="58.184261" id="rect8677" ry="1.1433572" style="opacity:1;fill:none;fill-opacity:1;stroke:none;stroke-width:1.10699999;stroke-linecap:round;stroke-linejoin:round;stroke-miterlimit:4;stroke-dasharray:none;stroke-dashoffset:0;stroke-opacity:1" width="150.11761" x="-377.22021" y="-198.90477"/>
</g>
<g id="g9233" transform="translate(18.10732,-489.15387)">
<rect height="58.184261" id="rect9229" ry="1.1433572" style="opacity:1;fill:none;fill-opacity:1;stroke:none;stroke-width:1.10699999;stroke-linecap:round;stroke-linejoin:round;stroke-miterlimit:4;stroke-dasharray:none;stroke-dashoffset:0;stroke-opacity:1" width="150.11761" x="-377.22021" y="-198.90477"/>
<rect height="368.83194" id="rect9311" ry="1.1433572" style="opacity:1;fill:none;fill-opacity:1;stroke:none;stroke-width:1.10699999;stroke-linecap:round;stroke-linejoin:round;stroke-miterlimit:4;stroke-dasharray:none;stroke-dashoffset:0;stroke-opacity:1" width="313.2399" x="-594.38983" y="-161.63449"/>
<ellipse cx="-13.01271" cy="511.11502" id="path981-7-0-6-1-7-4" rx="3.877409" ry="0.31109855" style="opacity:1;fill:#b3b3b3;fill-opacity:1;stroke:none;stroke-width:0.79707766;stroke-linecap:round;stroke-linejoin:round;stroke-miterlimit:4;stroke-dasharray:none;stroke-dashoffset:0;stroke-opacity:1"/>
<path d="m -15.308179,510.75668 h 4.700133" id="path977-8-5-8-4-2-6" style="opacity:1;fill:none;fill-opacity:1;stroke:#241f1c;stroke-width:0.51981038;stroke-linecap:round;stroke-linejoin:round;stroke-miterlimit:4;stroke-dasharray:none;stroke-dashoffset:0;stroke-opacity:1"/>
<path d="m -13.066884,508.24802 c 0,0 4.8567946,0.35053 4.1673486,-2.32092" id="path972-85-1-7-3-1-4" style="opacity:1;fill:none;fill-opacity:1;stroke:#241f1c;stroke-width:0.59957117;stroke-linecap:round;stroke-linejoin:round;stroke-miterlimit:4;stroke-dasharray:none;stroke-dashoffset:0;stroke-opacity:1"/>
<path d="m -13.862062,510.75668 -0.04063,-14.1273 1.337637,-1.4e-4 0.07827,14.11534 z" id="path979-8-6-6-8-0-8-4-4-0-5-6" style="opacity:1;fill:#784421;fill-opacity:1;stroke:#241f1c;stroke-width:0.60761064;stroke-linecap:round;stroke-linejoin:round;stroke-miterlimit:4;stroke-dasharray:none;stroke-dashoffset:0;stroke-opacity:1"/>
<path d="m -13.121384,489.66597 a 4.0118354,4.6885666 24.683526 0 0 -4.346997,3.9582 4.0118354,4.6885666 24.683526 0 0 2.968689,5.15262 4.0118354,4.6885666 24.683526 0 0 0.157536,0.0179 3.0585795,4.3544554 58.0494 0 0 5.0066206,-1.45147 3.0585795,4.3544554 58.0494 0 0 0.47861,-4.77979 3.0585795,4.3544554 58.0494 0 0 -0.708694,-0.34738 4.0118354,4.6885666 24.683526 0 0 -2.8597936,-2.51127 4.0118354,4.6885666 24.683526 0 0 -0.695971,-0.0389 z" id="path4581-5-9-6" style="opacity:1;fill:#37c837;fill-opacity:1;stroke:#241f1c;stroke-width:1.01823282;stroke-linecap:round;stroke-linejoin:round;stroke-miterlimit:4;stroke-dasharray:none;stroke-dashoffset:0;stroke-opacity:1"/>
<path d="m -13.121384,489.66597 a 4.0118354,4.6885666 24.683526 0 0 -4.346997,3.9582 4.0118354,4.6885666 24.683526 0 0 2.968689,5.15262 4.0118354,4.6885666 24.683526 0 0 0.157536,0.0179 3.0585795,4.3544554 58.0494 0 0 5.0066206,-1.45147 3.0585795,4.3544554 58.0494 0 0 0.47861,-4.77979 3.0585795,4.3544554 58.0494 0 0 -0.708694,-0.34738 4.0118354,4.6885666 24.683526 0 0 -2.8597936,-2.51127 4.0118354,4.6885666 24.683526 0 0 -0.695971,-0.0389 z" id="path8325" style="opacity:1;fill:#37c837;fill-opacity:1;stroke:#241f1c;stroke-width:1.01823282;stroke-linecap:round;stroke-linejoin:round;stroke-miterlimit:4;stroke-dasharray:none;stroke-dashoffset:0;stroke-opacity:1"/>
<path d="m -8.8933374,500.14067 a 2.293354,2.9194543 14.58222 0 0 -2.4561936,2.49348 2.293354,2.9194543 14.58222 0 0 1.6773986,3.24596 2.293354,2.9194543 14.58222 0 0 0.08894,0.0114 1.8542228,2.5567093 48.845804 0 0 2.828916,-0.91439 1.8542228,2.5567093 48.845804 0 0 0.270416,-3.01107 1.8542228,2.5567093 48.845804 0 0 -0.400434,-0.21882 2.293354,2.9194543 14.58222 0 0 -1.61588,-1.58201 2.293354,2.9194543 14.58222 0 0 -0.393259,-0.0243 z" id="path8867" style="opacity:1;fill:#37c837;fill-opacity:1;stroke:#241f1c;stroke-width:1.0182327;stroke-linecap:round;stroke-linejoin:round;stroke-miterlimit:4;stroke-dasharray:none;stroke-dashoffset:0;stroke-opacity:1"/>
</g>
</svg>