<?xml version="1.0" ?>
<!-- Uploaded to: SVG Repo, www.svgrepo.com, Generator: SVG Repo Mixer Tools -->
<svg width="800px" height="800px" viewBox="0 0 512 512" version="1.1" xml:space="preserve" xmlns="http://www.w3.org/2000/svg" xmlns:xlink="http://www.w3.org/1999/xlink">
<style type="text/css">
	.st0{display:none;}
	.st1{fill:#474747;}
</style>
<g class="st0" id="Layer_1"/>
<g id="Layer_2">
<g>
<path class="st1" d="M419.58,136.42c-5.58-19.92-24.08-38.42-44-44c-0.07-0.02-0.14-0.04-0.2-0.05    c-79.22-19.64-159.55-19.64-238.75,0c-0.07,0.02-0.14,0.04-0.2,0.05c-19.92,5.58-38.42,24.08-44,44c-0.02,0.07-0.04,0.14-0.05,0.2    c-18.09,72.98-19.54,147.01-4.28,220.04c0,0.02,0.01,0.04,0.01,0.05c0,0.01,0,0.02,0.01,0.03c1.3,6.17,2.73,12.43,4.26,18.63    c0.02,0.07,0.04,0.14,0.05,0.21c5.58,19.91,24.08,38.42,44,44c0.07,0.02,0.14,0.04,0.2,0.05c39.61,9.82,79.48,14.73,119.37,14.73    c39.88,0,79.78-4.91,119.38-14.73c0.07-0.02,0.14-0.03,0.2-0.05c19.92-5.58,38.42-24.08,44-44c0.02-0.07,0.04-0.14,0.05-0.2    c8.91-35.94,13.84-72.38,14.65-108.31c0,0,0-0.01,0-0.01c0,0,0-0.01,0-0.01c1-43.26-3.93-87.14-14.65-130.42    C419.62,136.56,419.6,136.49,419.58,136.42z M406.08,371.9c-4.24,14.96-19.21,29.93-34.17,34.17c-76.91,19.05-154.9,19.04-231.8,0    c-14.96-4.24-29.93-19.21-34.17-34.17c-1.2-4.84-2.31-9.71-3.36-14.54l99.24-104.24c2.43-2.55,5.72-3.89,9.23-3.74    c3.52,0.14,6.69,1.72,8.91,4.46l67.87,83.54c2.44,3,6.85,3.46,9.85,1.02c3-2.44,3.46-6.85,1.02-9.85l-67.87-83.54    c-4.73-5.82-11.73-9.32-19.23-9.62c-7.5-0.3-14.75,2.65-19.92,8.08l-92.45,97.11c-12.01-66.62-9.76-133.99,6.71-200.48    c4.24-14.96,19.21-29.93,34.17-34.17c76.9-19.05,154.89-19.05,231.8,0c14.96,4.24,29.93,19.21,34.17,34.17    c9.16,37,13.96,74.45,14.32,111.52l-54.05-46.91c-10.32-8.96-25.95-8.38-35.59,1.3l-62.27,62.57c-2.73,2.74-2.72,7.17,0.02,9.9    c1.37,1.36,3.15,2.04,4.94,2.04c1.8,0,3.59-0.69,4.96-2.06l62.27-62.57c4.47-4.49,11.71-4.75,16.49-0.6l63.04,54.71    C419.2,303.81,414.45,338.08,406.08,371.9z"/>
<path class="st1" d="M314.39,172.95c16.54,0,30-13.46,30-30s-13.46-30-30-30s-30,13.46-30,30S297.84,172.95,314.39,172.95z     M314.39,126.94c8.82,0,16,7.18,16,16s-7.18,16-16,16s-16-7.18-16-16S305.56,126.94,314.39,126.94z"/>
<path class="st1" d="M201.37,157.16c-0.12,0-0.25,0-0.37,0c-3.37-8.59-11.77-14.72-21.46-14.72c-8.21,0-15.56,4.38-19.65,11.04    c-2.74-0.92-5.62-1.39-8.59-1.39c-14.97,0-27.15,12.18-27.15,27.15c0,13.63,10.09,24.94,23.2,26.86    c4.97,10.11,15.41,16.82,26.93,16.82c12.1,0,22.8-7.26,27.48-17.98c12.99-0.21,23.5-10.85,23.5-23.89    C225.26,167.88,214.54,157.16,201.37,157.16z M201.37,190.95c-0.86,0-1.75-0.13-2.65-0.38c-1.88-0.52-3.9-0.24-5.56,0.79    c-1.66,1.03-2.82,2.71-3.19,4.63c-1.44,7.49-8.04,12.93-15.69,12.93c-7.07,0-13.38-4.74-15.35-11.52c-0.87-3-3.62-5.05-6.72-5.05    c-0.11,0-0.21,0-0.32,0.01c-0.16,0.01-0.33,0.02-0.49,0.03l-0.11,0.01c-7.25,0-13.15-5.9-13.15-13.15s5.9-13.15,13.15-13.15    c2.93,0,5.71,0.96,8.05,2.77c1.98,1.54,4.63,1.9,6.95,0.95c2.32-0.95,3.95-3.07,4.29-5.55c0.6-4.46,4.45-7.83,8.95-7.83    c4.9,0,8.95,3.99,9.03,8.89c0.04,2.27,1.17,4.37,3.04,5.65c1.87,1.28,4.24,1.58,6.37,0.8c1.12-0.41,2.26-0.62,3.4-0.62    c5.45,0,9.89,4.44,9.89,9.89S206.83,190.95,201.37,190.95z"/>
<path class="st1" d="M316.42,351.11c-0.17-0.42-0.39-0.83-0.64-1.21c-0.26-0.38-0.55-0.74-0.87-1.06    c-0.33-0.33-0.68-0.62-1.07-0.87c-0.38-0.26-0.78-0.47-1.21-0.65c-0.42-0.17-0.86-0.31-1.31-0.4c-0.9-0.18-1.83-0.18-2.73,0    c-0.45,0.09-0.89,0.23-1.31,0.4c-0.42,0.18-0.83,0.39-1.21,0.65c-0.38,0.25-0.74,0.54-1.06,0.87c-0.33,0.32-0.62,0.68-0.87,1.06    c-0.26,0.38-0.47,0.79-0.65,1.21c-0.17,0.42-0.31,0.86-0.4,1.31s-0.13,0.91-0.13,1.37c0,0.45,0.04,0.91,0.13,1.36    c0.09,0.45,0.23,0.89,0.4,1.31c0.18,0.43,0.39,0.83,0.65,1.21c0.25,0.39,0.54,0.74,0.87,1.07c0.32,0.32,0.68,0.61,1.06,0.87    c0.38,0.25,0.79,0.47,1.21,0.64c0.42,0.18,0.86,0.31,1.31,0.4c0.45,0.09,0.91,0.14,1.37,0.14c0.45,0,0.91-0.05,1.36-0.14    c0.45-0.09,0.89-0.22,1.31-0.4c0.43-0.17,0.83-0.39,1.21-0.64c0.39-0.26,0.74-0.55,1.07-0.87c0.32-0.33,0.61-0.68,0.87-1.07    c0.25-0.38,0.47-0.78,0.64-1.21c0.17-0.42,0.31-0.86,0.4-1.31c0.09-0.45,0.14-0.91,0.14-1.36c0-0.46-0.05-0.92-0.14-1.37    S316.59,351.53,316.42,351.11z"/>
</g>
</g>
</svg>